<svg width="244" height="60" viewBox="0 0 244 60" fill="none" xmlns="http://www.w3.org/2000/svg">
<path d="M14.68 6.08C15.4 6.08 15.9867 6.30666 16.44 6.76C16.8933 7.18667 17.12 7.74667 17.12 8.44C17.12 9.13333 16.8933 9.70667 16.44 10.16C15.9867 10.5867 15.4 10.8 14.68 10.8C13.96 10.8 13.3733 10.5867 12.92 10.16C12.4667 9.70667 12.24 9.13333 12.24 8.44C12.24 7.74667 12.4667 7.18667 12.92 6.76C13.3733 6.30666 13.96 6.08 14.68 6.08ZM17.8 33.64C17.8 37.0267 16.6667 39.6533 14.4 41.52C12.16 43.4133 8.82667 44.7333 4.4 45.48L3.84 42.88C7.22667 42.32 9.84 41.3333 11.68 39.92C13.52 38.5333 14.44 36.5067 14.44 33.84V18.6H5.68V15.92H17.8V33.64ZM31.3444 30.88C31.3444 32.24 31.6244 33.24 32.1844 33.88C32.771 34.4933 33.6777 34.8 34.9044 34.8C36.0244 34.8 37.1044 34.48 38.1444 33.84C39.1844 33.2 40.011 32.4 40.6244 31.44V15.92H43.9844V37H41.1044L40.8244 34.16C39.9977 35.2 38.971 36.0133 37.7444 36.6C36.5444 37.16 35.3177 37.44 34.0644 37.44C32.0644 37.44 30.5444 36.9067 29.5044 35.84C28.491 34.7733 27.9844 33.24 27.9844 31.24V15.92H31.3444V30.88ZM51.9688 15.92H54.8488L55.1288 18.88C55.9554 17.8133 56.9954 16.9867 58.2487 16.4C59.5288 15.7867 60.8088 15.48 62.0888 15.48C66.0354 15.48 68.0088 17.56 68.0088 21.72V37H64.6488V24.2C64.6488 22.6267 64.5554 21.4267 64.3688 20.6C64.2088 19.7733 63.8754 19.16 63.3688 18.76C62.8621 18.36 62.0888 18.16 61.0488 18.16C59.9021 18.16 58.8221 18.5067 57.8088 19.2C56.7954 19.8933 55.9688 20.72 55.3288 21.68V37H51.9688V15.92ZM91.0731 32.4C91.0731 33.2267 91.2065 33.84 91.4731 34.24C91.7398 34.6133 92.1798 34.8933 92.7931 35.08L91.9531 37.48C89.8998 37.2133 88.6198 36.2133 88.1131 34.48C87.3665 35.44 86.4198 36.1733 85.2731 36.68C84.1531 37.1867 82.8998 37.44 81.5131 37.44C79.4065 37.44 77.7398 36.8533 76.5131 35.68C75.3131 34.5067 74.7131 32.9333 74.7131 30.96C74.7131 28.8 75.5531 27.1333 77.2331 25.96C78.9398 24.7867 81.3798 24.2 84.5531 24.2H87.6731V22.48C87.6731 20.9867 87.2465 19.92 86.3931 19.28C85.5398 18.6133 84.2998 18.28 82.6731 18.28C81.0731 18.28 79.2465 18.64 77.1931 19.36L76.2731 16.8C78.7531 15.92 81.0598 15.48 83.1931 15.48C85.7531 15.48 87.6998 16.08 89.0331 17.28C90.3931 18.48 91.0731 20.1467 91.0731 22.28V32.4ZM82.3531 34.92C83.3931 34.92 84.3798 34.6533 85.3131 34.12C86.2731 33.5867 87.0598 32.8533 87.6731 31.92V26.52H84.6331C82.3931 26.52 80.7798 26.8933 79.7931 27.64C78.8065 28.3867 78.3131 29.48 78.3131 30.92C78.3131 33.5867 79.6598 34.92 82.3531 34.92ZM102.618 27.64C102.698 29.96 103.298 31.7067 104.418 32.88C105.564 34.0533 107.004 34.64 108.738 34.64C109.778 34.64 110.724 34.4933 111.578 34.2C112.458 33.88 113.391 33.4 114.378 32.76L115.938 35C114.951 35.7733 113.818 36.3733 112.538 36.8C111.284 37.2267 110.018 37.44 108.738 37.44C105.698 37.44 103.324 36.4533 101.618 34.48C99.9375 32.48 99.0975 29.8133 99.0975 26.48C99.0975 24.3733 99.4708 22.4933 100.218 20.84C100.964 19.16 102.031 17.8533 103.418 16.92C104.804 15.96 106.418 15.48 108.258 15.48C110.924 15.48 113.018 16.4133 114.538 18.28C116.084 20.12 116.858 22.64 116.858 25.84C116.858 26.4533 116.831 27.0533 116.778 27.64H102.618ZM108.298 18.24C106.671 18.24 105.351 18.8267 104.338 20C103.324 21.1467 102.751 22.84 102.618 25.08H113.578C113.551 22.8667 113.071 21.1733 112.138 20C111.204 18.8267 109.924 18.24 108.298 18.24ZM139.922 7.44V37H136.962L136.642 34.24C135.869 35.3067 134.975 36.1067 133.962 36.64C132.949 37.1733 131.855 37.44 130.682 37.44C128.015 37.44 126.002 36.4667 124.642 34.52C123.309 32.5733 122.642 29.8933 122.642 26.48C122.642 24.3733 122.975 22.4933 123.642 20.84C124.309 19.16 125.255 17.8533 126.482 16.92C127.735 15.96 129.202 15.48 130.882 15.48C133.202 15.48 135.095 16.32 136.562 18V7.04L139.922 7.44ZM131.762 18.2C130.002 18.2 128.642 18.8933 127.682 20.28C126.749 21.6667 126.282 23.7333 126.282 26.48C126.282 29.2 126.709 31.2667 127.562 32.68C128.442 34.0667 129.709 34.76 131.362 34.76C133.362 34.76 135.095 33.64 136.562 31.4V20.92C135.975 20.04 135.269 19.3733 134.442 18.92C133.615 18.44 132.722 18.2 131.762 18.2ZM165.386 29.36C165.386 30.96 164.986 32.3733 164.186 33.6C163.386 34.8 162.226 35.7467 160.706 36.44C159.186 37.1067 157.386 37.44 155.306 37.44C153.306 37.44 151.48 37.1467 149.826 36.56C148.2 35.9467 146.8 35.08 145.626 33.96L147.706 31.6C148.72 32.56 149.84 33.2933 151.066 33.8C152.32 34.3067 153.746 34.56 155.346 34.56C157.16 34.56 158.68 34.12 159.906 33.24C161.133 32.36 161.746 31.0933 161.746 29.44C161.746 28.5067 161.573 27.7333 161.226 27.12C160.88 26.5067 160.266 25.96 159.386 25.48C158.533 25 157.32 24.5333 155.746 24.08C152.76 23.2 150.533 22.1733 149.066 21C147.6 19.8 146.866 18.1733 146.866 16.12C146.866 14.76 147.24 13.5333 147.986 12.44C148.733 11.3467 149.786 10.5067 151.146 9.92C152.506 9.30666 154.053 9 155.786 9C157.6 9 159.213 9.26667 160.626 9.8C162.066 10.3333 163.386 11.12 164.586 12.16L162.506 14.4C160.613 12.7467 158.413 11.92 155.906 11.92C154.306 11.92 152.986 12.2667 151.946 12.96C150.906 13.6533 150.386 14.6667 150.386 16C150.386 16.8 150.6 17.48 151.026 18.04C151.453 18.6 152.16 19.12 153.146 19.6C154.133 20.08 155.52 20.5733 157.306 21.08C159.893 21.8267 161.88 22.8 163.266 24C164.68 25.2 165.386 26.9867 165.386 29.36ZM179.891 6.08C180.637 6.08 181.237 6.30666 181.691 6.76C182.144 7.18667 182.371 7.74667 182.371 8.44C182.371 9.13333 182.144 9.70667 181.691 10.16C181.237 10.5867 180.637 10.8 179.891 10.8C179.171 10.8 178.584 10.5867 178.131 10.16C177.704 9.70667 177.491 9.13333 177.491 8.44C177.491 7.74667 177.704 7.18667 178.131 6.76C178.584 6.30666 179.171 6.08 179.891 6.08ZM182.571 34.32H188.491V37H172.731V34.32H179.211V18.6H172.931V15.92H182.571V34.32ZM210.995 32.4C210.995 33.2267 211.128 33.84 211.395 34.24C211.662 34.6133 212.102 34.8933 212.715 35.08L211.875 37.48C209.822 37.2133 208.542 36.2133 208.035 34.48C207.288 35.44 206.342 36.1733 205.195 36.68C204.075 37.1867 202.822 37.44 201.435 37.44C199.328 37.44 197.662 36.8533 196.435 35.68C195.235 34.5067 194.635 32.9333 194.635 30.96C194.635 28.8 195.475 27.1333 197.155 25.96C198.862 24.7867 201.302 24.2 204.475 24.2H207.595V22.48C207.595 20.9867 207.168 19.92 206.315 19.28C205.462 18.6133 204.222 18.28 202.595 18.28C200.995 18.28 199.168 18.64 197.115 19.36L196.195 16.8C198.675 15.92 200.982 15.48 203.115 15.48C205.675 15.48 207.622 16.08 208.955 17.28C210.315 18.48 210.995 20.1467 210.995 22.28V32.4ZM202.275 34.92C203.315 34.92 204.302 34.6533 205.235 34.12C206.195 33.5867 206.982 32.8533 207.595 31.92V26.52H204.555C202.315 26.52 200.702 26.8933 199.715 27.64C198.728 28.3867 198.235 29.48 198.235 30.92C198.235 33.5867 199.582 34.92 202.275 34.92ZM233.739 15.48C234.939 15.48 235.913 15.9067 236.659 16.76C237.433 17.5867 237.819 19.1067 237.819 21.32V37H234.739V21.88C234.739 20.4133 234.646 19.4267 234.459 18.92C234.273 18.3867 233.819 18.12 233.099 18.12C231.739 18.12 230.513 18.96 229.419 20.64V37H226.299V21.88C226.299 20.4133 226.206 19.4267 226.019 18.92C225.833 18.3867 225.379 18.12 224.659 18.12C223.299 18.12 222.073 18.96 220.979 20.64V37H217.899V15.92H220.499L220.739 18.4C221.379 17.4667 222.046 16.7467 222.739 16.24C223.459 15.7333 224.313 15.48 225.299 15.48C227.273 15.48 228.539 16.4133 229.099 18.28C229.739 17.3733 230.419 16.68 231.139 16.2C231.859 15.72 232.726 15.48 233.739 15.48Z" fill="#525252"/>
<path d="M237.9 53C234.3 53 232.4 54 230.7 54.8333C229 55.6667 227.4 56.6667 224.1 56.6667C220.8 56.6667 219.2 55.8333 217.5 54.8333C215.7 53.8333 213.9 53 210.2 53C206.6 53 204.7 54 203 54.8333C201.3 55.6667 199.7 56.6667 196.4 56.6667C193.1 56.6667 191.5 55.8333 189.8 54.8333C188 53.8333 186.2 53 182.6 53C179 53 177.1 54 175.4 54.8333C173.7 55.6667 172.1 56.6667 168.8 56.6667C165.5 56.6667 163.9 55.8333 162.2 54.8333C160.4 53.8333 158.6 53 155 53C154.4 53 154 53.6667 154 54.6667C154 55.6667 154.4 56.3333 155 56.3333C158.3 56.3333 159.9 57.1667 161.6 58.1667C163.4 59.1667 165.2 60 168.8 60C172.4 60 174.3 59 176 58.1667C177.7 57.3333 179.3 56.3333 182.6 56.3333C185.9 56.3333 187.5 57.1667 189.2 58.1667C191 59.1667 192.8 60 196.4 60C200 60 201.9 59 203.6 58.1667C205.3 57.3333 206.9 56.3333 210.2 56.3333C213.5 56.3333 215.1 57.1667 216.8 58.1667C218.6 59.1667 220.4 60 224 60C227.6 60 229.5 59 231.3 58.1667C233 57.3333 234.6 56.3333 237.9 56.3333C238.5 56.3333 238.9 55.6667 238.9 54.6667C238.9 53.6667 238.5 53 237.9 53Z" fill="#7C3AED"/>
</svg>
